<?xml version="1.0" encoding="utf-8"?>
<svg version="1.1" xmlns:xlink="http://www.w3.org/1999/xlink" width="12px" height="12px" viewBox="639 4015  12 12" xmlns="http://www.w3.org/2000/svg">
  <path d="M 645 4015  C 648.36 4015  651 4017.64  651 4021  C 651 4024.36  648.36 4027  645 4027  C 641.64 4027  639 4024.36  639 4021  C 639 4017.64  641.64 4015  645 4015  Z " fill-rule="nonzero" fill="#ffffff" stroke="none" />
  <path d="M 645 4015.5  C 648.08 4015.5  650.5 4017.92  650.5 4021  C 650.5 4024.08  648.08 4026.5  645 4026.5  C 641.92 4026.5  639.5 4024.08  639.5 4021  C 639.5 4017.92  641.92 4015.5  645 4015.5  Z " stroke-width="1" stroke="#797979" fill="none" />
  <path d="M 645 4024  C 643.32 4024  642 4022.68  642 4021  C 642 4019.32  643.32 4018  645 4018  C 646.68 4018  648 4019.32  648 4021  C 648 4022.68  646.68 4024  645 4024  " fill-rule="nonzero" fill="#797979" stroke="none" />
</svg>