<?xml version="1.0" encoding="utf-8"?>
<svg version="1.1" xmlns:xlink="http://www.w3.org/1999/xlink" width="12px" height="12px" viewBox="586 4111  12 12" xmlns="http://www.w3.org/2000/svg">
  <path d="M 592 4111  C 595.36 4111  598 4113.64  598 4117  C 598 4120.36  595.36 4123  592 4123  C 588.64 4123  586 4120.36  586 4117  C 586 4113.64  588.64 4111  592 4111  Z " fill-rule="nonzero" fill="#ffffff" stroke="none" />
  <path d="M 592 4111.5  C 595.08 4111.5  597.5 4113.92  597.5 4117  C 597.5 4120.08  595.08 4122.5  592 4122.5  C 588.92 4122.5  586.5 4120.08  586.5 4117  C 586.5 4113.92  588.92 4111.5  592 4111.5  Z " stroke-width="1" stroke="#797979" fill="none" />
  <path d="M 592 4120  C 590.32 4120  589 4118.68  589 4117  C 589 4115.32  590.32 4114  592 4114  C 593.68 4114  595 4115.32  595 4117  C 595 4118.68  593.68 4120  592 4120  " fill-rule="nonzero" fill="#797979" stroke="none" />
</svg>