<?xml version="1.0" encoding="utf-8"?>
<svg version="1.1" xmlns:xlink="http://www.w3.org/1999/xlink" width="12px" height="12px" viewBox="639 4111  12 12" xmlns="http://www.w3.org/2000/svg">
  <path d="M 645 4111  C 648.36 4111  651 4113.64  651 4117  C 651 4120.36  648.36 4123  645 4123  C 641.64 4123  639 4120.36  639 4117  C 639 4113.64  641.64 4111  645 4111  Z " fill-rule="nonzero" fill="#ffffff" stroke="none" />
  <path d="M 645 4111.5  C 648.08 4111.5  650.5 4113.92  650.5 4117  C 650.5 4120.08  648.08 4122.5  645 4122.5  C 641.92 4122.5  639.5 4120.08  639.5 4117  C 639.5 4113.92  641.92 4111.5  645 4111.5  Z " stroke-width="1" stroke="#797979" fill="none" />
  <path d="M 645 4120  C 643.32 4120  642 4118.68  642 4117  C 642 4115.32  643.32 4114  645 4114  C 646.68 4114  648 4115.32  648 4117  C 648 4118.68  646.68 4120  645 4120  " fill-rule="nonzero" fill="#797979" stroke="none" />
</svg>