<?xml version="1.0" encoding="utf-8"?>
<svg version="1.1" xmlns:xlink="http://www.w3.org/1999/xlink" width="110px" height="70px" xmlns="http://www.w3.org/2000/svg">
  <g transform="matrix(1 0 0 1 -108 -1067 )">
    <path d="M 128 1136.5  L 208 1136.5  C 213.32 1136.5  217.5 1132.32  217.5 1127  L 217.5 1087  C 217.5 1083.01960377368  215.16005511139 1079.67737433516  211.753426824863 1078.24657317514  C 210.804162307016 1075.98644685692  209.013553143075 1074.19583769298  206.753426824863 1073.24657317514  C 205.322625664841 1069.83994488861  201.980396226322 1067.5  198 1067.5  L 118 1067.5  C 112.68 1067.5  108.5 1071.68  108.5 1077  L 108.5 1117  C 108.5 1120.98039622632  110.83994488861 1124.32262566484  114.246573175137 1125.75342682486  C 115.195837692984 1128.01355314308  116.986446856925 1129.80416230702  119.246573175137 1130.75342682486  C 120.677374335159 1134.16005511139  124.019603773678 1136.5  128 1136.5  Z " fill-rule="nonzero" fill="#ffffff" stroke="none" />
    <path d="M 128.5 1136.5  L 207.5 1136.5  C 213.1 1136.5  217.5 1132.1  217.5 1126.5  L 217.5 1087.5  C 217.5 1083.38207543127  215.120786603431 1079.91302724343  211.634752186914 1078.36524781309  C 210.644031495375 1076.13386628665  208.86613371335 1074.35596850463  206.634752186914 1073.36524781309  C 205.086972756572 1069.87921339657  201.617924568727 1067.5  197.5 1067.5  L 118.5 1067.5  C 112.9 1067.5  108.5 1071.9  108.5 1077.5  L 108.5 1116.5  C 108.5 1120.61792456873  110.879213396569 1124.08697275657  114.365247813086 1125.63475218691  C 115.355968504626 1127.86613371335  117.13386628665 1129.64403149537  119.365247813086 1130.63475218691  C 120.913027243428 1134.12078660343  124.382075431273 1136.5  128.5 1136.5  Z " stroke-width="1" stroke="#797979" fill="none" />
    <path d="M 211.678014577568 1078.07198542243  C 212.207220379431 1079.26390566801  212.5 1080.59202834029  212.5 1082  L 212.5 1121.5  C 212.5 1127.1  208.1 1131.5  202.5 1131.5  L 123 1131.5  C 119.087971659709 1131.5  115.792375881257 1129.23974727326  114.321985422432 1125.92801457757  M 206.678014577568 1073.07198542243  C 207.207220379431 1074.26390566801  207.5 1075.59202834029  207.5 1077  L 207.5 1116.499  C 207.5 1122.099  203.1 1126.499  197.5 1126.499  L 118 1126.5  C 116.592028340291 1126.5  115.263905668009 1126.20722037943  114.071985422432 1125.67801457757  " stroke-width="1" stroke="#797979" fill="none" />
  </g>
</svg>