<?xml version="1.0" encoding="utf-8"?>
<svg version="1.1" xmlns:xlink="http://www.w3.org/1999/xlink" width="110px" height="70px" xmlns="http://www.w3.org/2000/svg">
  <defs>
    <pattern id="BGPattern" patternUnits="userSpaceOnUse" alignment="0 0" imageRepeat="None" />
    <mask fill="white" id="Clip44">
      <path d="M 20 70  L 100 70  C 105.6 70  110 65.60000000000001  110 60.00000000000001  L 110 20  C 110 15.882075431272925  107.6207866034313 12.413027243428228  104.134752186914 10.865247813086016  C 103.1440314953745 8.63386628665048  101.36613371334954 6.855968504625518  99.134752186914 5.8652478130860155  C 97.58697275657178 2.3792133965687103  94.11792456872708 0  90 0  L 10 0  C 4.3999999999999995 0  0 4.3999999999999995  0 10  L 0 50.00000000000001  C 0 54.11792456872708  2.3792133965687077 57.58697275657178  5.865247813086012 59.134752186913985  C 6.855968504625514 61.36613371334952  8.633866286650475 63.14403149537449  10.865247813086013 64.13475218691399  C 12.413027243428223 67.62078660343128  15.882075431272925 70  20 70  Z " fill-rule="evenodd" />
    </mask>
  </defs>
  <g transform="matrix(1 0 0 1 -108 -1067 )">
    <path d="M 20 70  L 100 70  C 105.6 70  110 65.60000000000001  110 60.00000000000001  L 110 20  C 110 15.882075431272925  107.6207866034313 12.413027243428228  104.134752186914 10.865247813086016  C 103.1440314953745 8.63386628665048  101.36613371334954 6.855968504625518  99.134752186914 5.8652478130860155  C 97.58697275657178 2.3792133965687103  94.11792456872708 0  90 0  L 10 0  C 4.3999999999999995 0  0 4.3999999999999995  0 10  L 0 50.00000000000001  C 0 54.11792456872708  2.3792133965687077 57.58697275657178  5.865247813086012 59.134752186913985  C 6.855968504625514 61.36613371334952  8.633866286650475 63.14403149537449  10.865247813086013 64.13475218691399  C 12.413027243428223 67.62078660343128  15.882075431272925 70  20 70  Z M 103.6780145775683 11.071985422431718  L 6.321985422431711 58.928014577568284  C 7.7923758812568105 62.239747273259724  11.087971659709275 64.5  14.999999999999998 64.5  L 94.5 64.5  C 100.10000000000001 64.5  104.50000000000001 60.10000000000001  104.5 54.50000000000001  L 104.5 15  C 104.50000000000001 13.592028340290723  104.20722037943086 12.263905668009395  103.6780145775683 11.071985422431718  Z M 98.67801457756829 6.071985422431716  L 6.071985422431711 58.678014577568284  C 7.26390566800939 59.207220379430865  8.592028340290723 59.50000000000001  10 59.5  L 89.5 59.5  C 95.1 59.499  99.5 55.099000000000004  99.5 49.49900000000001  L 99.5 10  C 99.5 8.592028340290723  99.20722037943085 7.263905668009393  98.67801457756829 6.071985422431716  Z " fill-rule="nonzero" fill="rgba(255, 255, 255, 1)" stroke="none" transform="matrix(1 0 0 1 108 1067 )" class="fill" />
    <path d="M 20 70  L 100 70  C 105.6 70  110 65.60000000000001  110 60.00000000000001  L 110 20  C 110 15.882075431272925  107.6207866034313 12.413027243428228  104.134752186914 10.865247813086016  C 103.1440314953745 8.63386628665048  101.36613371334954 6.855968504625518  99.134752186914 5.8652478130860155  C 97.58697275657178 2.3792133965687103  94.11792456872708 0  90 0  L 10 0  C 4.3999999999999995 0  0 4.3999999999999995  0 10  L 0 50.00000000000001  C 0 54.11792456872708  2.3792133965687077 57.58697275657178  5.865247813086012 59.134752186913985  C 6.855968504625514 61.36613371334952  8.633866286650475 63.14403149537449  10.865247813086013 64.13475218691399  C 12.413027243428223 67.62078660343128  15.882075431272925 70  20 70  Z " stroke-width="2" stroke-dasharray="0" stroke="rgba(121, 121, 121, 1)" fill="none" transform="matrix(1 0 0 1 108 1067 )" class="stroke" mask="url(#Clip44)" />
    <path d="M 6.321985422431711 58.928014577568284  C 7.7923758812568105 62.239747273259724  11.087971659709275 64.5  14.999999999999998 64.5  L 94.5 64.5  C 100.10000000000001 64.5  104.50000000000001 60.10000000000001  104.5 54.50000000000001  L 104.5 15  C 104.50000000000001 13.592028340290723  104.20722037943086 12.263905668009395  103.6780145775683 11.071985422431718  M 6.071985422431711 58.678014577568284  C 7.26390566800939 59.207220379430865  8.592028340290723 59.50000000000001  10 59.5  L 89.5 59.5  C 95.1 59.499  99.5 55.099000000000004  99.5 49.49900000000001  L 99.5 10  C 99.5 8.592028340290723  99.20722037943085 7.263905668009393  98.67801457756829 6.071985422431716  " stroke-width="1" stroke-dasharray="0" stroke="rgba(121, 121, 121, 1)" fill="none" transform="matrix(1 0 0 1 108 1067 )" class="stroke" />
  </g>
</svg>